<svg width="136" height="133" viewBox="0 0 136 133" fill="none" xmlns="http://www.w3.org/2000/svg">
<path d="M8 0.041687H128C129.989 0.041687 131.897 0.678218 133.303 1.81125C134.71 2.94428 135.5 4.481 135.5 6.08335V30.25C135.5 31.8524 134.71 33.3891 133.303 34.5221C131.897 35.6552 129.989 36.2917 128 36.2917H8C6.01088 36.2917 4.10322 35.6552 2.6967 34.5221C1.29018 33.3891 0.5 31.8524 0.5 30.25V6.08335C0.5 4.481 1.29018 2.94428 2.6967 1.81125C4.10322 0.678218 6.01088 0.041687 8 0.041687ZM8 48.375H128C129.989 48.375 131.897 49.0116 133.303 50.1446C134.71 51.2776 135.5 52.8143 135.5 54.4167V78.5834C135.5 80.1857 134.71 81.7224 133.303 82.8555C131.897 83.9885 129.989 84.625 128 84.625H8C6.01088 84.625 4.10322 83.9885 2.6967 82.8555C1.29018 81.7224 0.5 80.1857 0.5 78.5834V54.4167C0.5 52.8143 1.29018 51.2776 2.6967 50.1446C4.10322 49.0116 6.01088 48.375 8 48.375ZM8 96.7084H128C129.989 96.7084 131.897 97.3449 133.303 98.4779C134.71 99.6109 135.5 101.148 135.5 102.75V126.917C135.5 128.519 134.71 130.056 133.303 131.189C131.897 132.322 129.989 132.958 128 132.958H8C6.01088 132.958 4.10322 132.322 2.6967 131.189C1.29018 130.056 0.5 128.519 0.5 126.917V102.75C0.5 101.148 1.29018 99.6109 2.6967 98.4779C4.10322 97.3449 6.01088 96.7084 8 96.7084ZM45.5 24.2084H53V12.125H45.5V24.2084ZM45.5 72.5417H53V60.4584H45.5V72.5417ZM45.5 120.875H53V108.792H45.5V120.875ZM15.5 12.125V24.2084H30.5V12.125H15.5ZM15.5 60.4584V72.5417H30.5V60.4584H15.5ZM15.5 108.792V120.875H30.5V108.792H15.5Z" fill="white"/>
</svg>
