<svg width="50" height="50" viewBox="0 0 50 50" fill="none" xmlns="http://www.w3.org/2000/svg">
<path d="M25 32.5C27.025 32.5 28.75 31.75 30.275 30.275C31.75 28.75 32.5 27.025 32.5 25C32.5 22.975 31.75 21.25 30.275 19.725C28.75 18.25 27.025 17.5 25 17.5C22.975 17.5 21.25 18.25 19.725 19.725C18.25 21.25 17.5 22.975 17.5 25C17.5 27.025 18.25 28.75 19.725 30.275C21.25 31.75 22.975 32.5 25 32.5ZM25 0C31.875 0 37.75 2.5 42.625 7.375C47.5 12.25 50 18.125 50 25V28.625C50 31.125 49.125 33.25 47.5 35C45.75 36.675 43.75 37.5 41.25 37.5C38.25 37.5 35.775 36.25 33.9 33.75C31.4 36.25 28.45 37.5 25 37.5C21.575 37.5 18.625 36.25 16.15 33.85C13.75 31.375 12.5 28.45 12.5 25C12.5 21.575 13.75 18.625 16.15 16.15C18.625 13.75 21.575 12.5 25 12.5C28.45 12.5 31.375 13.75 33.85 16.15C36.25 18.625 37.5 21.575 37.5 25V28.625C37.5 29.65 37.9 30.55 38.65 31.325C39.4 32.1 40.275 32.5 41.25 32.5C42.3 32.5 43.175 32.1 43.925 31.325C44.675 30.55 45 29.65 45 28.625V25C45 19.525 43.075 14.825 39.125 10.875C35.175 6.925 30.475 5 25 5C19.525 5 14.825 6.925 10.875 10.875C6.925 14.825 5 19.525 5 25C5 30.475 6.925 35.175 10.875 39.125C14.825 43.075 19.525 45 25 45H37.5V50H25C18.125 50 12.25 47.5 7.375 42.625C2.5 37.75 0 31.875 0 25C0 18.125 2.5 12.25 7.375 7.375C12.25 2.5 18.125 0 25 0Z" fill="#262A34"/>
</svg>
