<svg width="120" height="144" viewBox="0 0 120 144" fill="none" xmlns="http://www.w3.org/2000/svg">
<path d="M60 0.75C26.85 0.75 0 14.9208 0 32.4167C0 49.9125 26.85 64.0833 60 64.0833C93.15 64.0833 120 49.9125 120 32.4167C120 14.9208 93.15 0.75 60 0.75ZM0 48.25V72C0 89.4958 26.85 103.667 60 103.667C93.15 103.667 120 89.4958 120 72V48.25C120 65.7458 93.15 79.9167 60 79.9167C26.85 79.9167 0 65.7458 0 48.25ZM0 87.8333V111.583C0 129.079 26.85 143.25 60 143.25C93.15 143.25 120 129.079 120 111.583V87.8333C120 105.329 93.15 119.5 60 119.5C26.85 119.5 0 105.329 0 87.8333Z" fill="white"/>
</svg>
